<svg width="56" height="56" viewBox="0 0 56 56" fill="none" xmlns="http://www.w3.org/2000/svg">
<path fill-rule="evenodd" clip-rule="evenodd" d="M28 56C43.464 56 56 43.464 56 28C56 12.536 43.464 0 28 0C12.536 0 0 12.536 0 28C0 43.464 12.536 56 28 56Z" fill="#0AD1BD"/>
<path fill-rule="evenodd" clip-rule="evenodd" d="M17.5 21.3943L27.2249 30.0386C27.6669 30.4316 28.3331 30.4316 28.7751 30.0386L38.5 21.3943V35C38.5 35.6444 37.9777 36.1667 37.3333 36.1667H18.6667C18.0223 36.1667 17.5 35.6444 17.5 35V21.3943ZM19.2561 19.8333H36.7439L28 27.6057L19.2561 19.8333Z" fill="white"/>
</svg>
