<svg width="56" height="56" viewBox="0 0 56 56" fill="none" xmlns="http://www.w3.org/2000/svg">
<path fill-rule="evenodd" clip-rule="evenodd" d="M28 56C43.464 56 56 43.464 56 28C56 12.536 43.464 0 28 0C12.536 0 0 12.536 0 28C0 43.464 12.536 56 28 56Z" fill="#0AD1BD"/>
<path fill-rule="evenodd" clip-rule="evenodd" d="M28.5988 17.9509L30.8477 24.93L37.8743 25.0153C38.479 25.0227 38.7293 25.8303 38.2443 26.2083L32.6068 30.6063L34.7009 37.6379C34.8808 38.2431 34.226 38.7416 33.7325 38.375L28.0004 34.1139L22.2675 38.3742C21.7747 38.7408 21.1192 38.2415 21.2991 37.6371L23.3931 30.6055L17.7557 26.2075C17.2707 25.8295 17.521 25.0218 18.1257 25.0145L25.1523 24.9292L27.4012 17.95C27.5952 17.3499 28.4056 17.3499 28.5988 17.9509Z" fill="white"/>
</svg>
