<svg width="56" height="56" viewBox="0 0 56 56" fill="none" xmlns="http://www.w3.org/2000/svg">
<path fill-rule="evenodd" clip-rule="evenodd" d="M28 56C43.464 56 56 43.464 56 28C56 12.536 43.464 0 28 0C12.536 0 0 12.536 0 28C0 43.464 12.536 56 28 56Z" fill="#0AD1BD"/>
<path fill-rule="evenodd" clip-rule="evenodd" d="M18.6667 21C18.0223 21 17.5 21.5223 17.5 22.1667V33.8333C17.5 34.4777 18.0223 35 18.6667 35H31.5C32.1444 35 32.6667 34.4777 32.6667 33.8333V22.1667C32.6667 21.5223 32.1444 21 31.5 21H18.6667ZM38.5 32.1834V23.8166C38.5 22.7772 37.2434 22.2567 36.5084 22.9916L33.8333 25.6667V30.3333L36.5084 33.0084C37.2434 33.7434 38.5 33.2228 38.5 32.1834Z" fill="white"/>
</svg>
